<svg id="16831d9a-565c-4871-ae6c-f6d8a59b3728" data-name="Layer 1" xmlns="http://www.w3.org/2000/svg" viewBox="0 0 17.05 8.8"><defs><style>.ca0f57fe-c69d-478f-b59f-a5b9c01f2de1{fill:#d2293a;}</style></defs><title>about-icon</title><path class="ca0f57fe-c69d-478f-b59f-a5b9c01f2de1" d="M807.06,37a1.83,1.83,0,0,0-.39-1.08,2.56,2.56,0,0,1-.47.13,1.82,1.82,0,0,0-1.42.79,3.6,3.6,0,0,0-.2.67c0,0.11.07,0.22,0.11,0.33a1.62,1.62,0,0,0,1.08,1,1.81,1.81,0,0,0,1.13-1.17A4.37,4.37,0,0,0,807.06,37Z" transform="translate(-792.7 -32.43)"/><path class="ca0f57fe-c69d-478f-b59f-a5b9c01f2de1" d="M805.76,34.29a2.28,2.28,0,0,0-2.05,2.45,1.58,1.58,0,0,0,.87,1.46,1.6,1.6,0,0,1,.12-1.42c0.32-.81,1.69-0.78,2-1a2,2,0,0,1,.45,1.39,2.38,2.38,0,0,1-.22,1,1.84,1.84,0,0,0,.9-1.46A2.28,2.28,0,0,0,805.76,34.29Z" transform="translate(-792.7 -32.43)"/><path class="ca0f57fe-c69d-478f-b59f-a5b9c01f2de1" d="M802.91,40h0a1.37,1.37,0,0,1,.78,1h6.06V40.74a0.94,0.94,0,0,0-.55-0.72h0a10.14,10.14,0,0,0-2.47-.88,1.89,1.89,0,0,0-1,1.38,1.92,1.92,0,0,0-1-1.37,10.38,10.38,0,0,0-2.07.69Z" transform="translate(-792.7 -32.43)"/><path class="ca0f57fe-c69d-478f-b59f-a5b9c01f2de1" d="M800.1,35L800,35l-0.11,0V34.93a0.84,0.84,0,0,0-.41-0.63,5.24,5.24,0,0,1-1.51.25h0a2.42,2.42,0,0,1-1.35-.35,0.83,0.83,0,0,0-.2.56v0.12l-0.11,0h-0.07a0.22,0.22,0,0,0-.18.1h0a6.22,6.22,0,0,0,.45,2.2,2.07,2.07,0,0,0,1.69,1.39,2.18,2.18,0,0,0,1.77-1.6,6.25,6.25,0,0,0,.38-1.77A0.31,0.31,0,0,0,800.1,35Z" transform="translate(-792.7 -32.43)"/><path class="ca0f57fe-c69d-478f-b59f-a5b9c01f2de1" d="M799.49,34.21s-1.84.64-2.89-.12a0.93,0.93,0,0,0-.26.67,0.3,0.3,0,0,0-.39.24s-0.32-2,1-2.11c0.72-.77,3.67-0.88,3.48,2.26a0.39,0.39,0,0,0-.47-0.21A0.92,0.92,0,0,0,799.49,34.21Z" transform="translate(-792.7 -32.43)"/><path class="ca0f57fe-c69d-478f-b59f-a5b9c01f2de1" d="M803.62,41a1.29,1.29,0,0,0-.75-1h0a12,12,0,0,0-4.75-1.34A12.53,12.53,0,0,0,793.48,40a1.29,1.29,0,0,0-.77,1v0.21h5.22l0.26-1,0-.1H798a0.25,0.25,0,0,1-.25-0.25V39.36a0.25,0.25,0,0,1,.25-0.25h0.51a0.25,0.25,0,0,1,.25.25v0.53a0.25,0.25,0,0,1-.25.25h-0.25l0,0.1,0.26,1h5.12V41Z" transform="translate(-792.7 -32.43)"/></svg>