<svg id="b42cf332-e8d4-44de-804f-8779f6ad1789" data-name="Layer 1" xmlns="http://www.w3.org/2000/svg" viewBox="0 0 8.84 9.03"><defs><style>.\39 c0a6048-9da6-4540-b4c6-4a3b10ae8ef8{fill:#d2293a;fill-rule:evenodd;}</style></defs><title>contacts-icon</title><path class="9c0a6048-9da6-4540-b4c6-4a3b10ae8ef8" d="M874,34.46a0.32,0.32,0,0,1-.32-0.32,0.33,0.33,0,0,1,.32-0.36,0.34,0.34,0,0,1,.35.36,0.33,0.33,0,0,1-.35.32h0Zm-1,0a0.35,0.35,0,0,1-.36-0.32,0.36,0.36,0,0,1,.71,0,0.35,0.35,0,0,1-.36.32h0Zm-1,0a0.35,0.35,0,0,1-.36-0.32,0.36,0.36,0,0,1,.71,0,0.35,0.35,0,0,1-.36.32h0Zm1-2.1a2,2,0,0,0-2.21,1.78,1.65,1.65,0,0,0,.89,1.39,1.55,1.55,0,0,1-.47.89,2.07,2.07,0,0,0,1.42-.57,1.27,1.27,0,0,0,.36,0,2,2,0,0,0,2.21-1.74A2,2,0,0,0,873,32.36h0Zm2.28,7.18a0.32,0.32,0,0,1,0,.36L874,41.14a0.48,0.48,0,0,1-.21.18,0.82,0.82,0,0,1-.28.07h-0.18a4.13,4.13,0,0,1-.57,0,3.56,3.56,0,0,1-1-.32,7,7,0,0,1-1.32-.71A9.68,9.68,0,0,1,868.88,39a11.3,11.3,0,0,1-1.07-1.25,7.53,7.53,0,0,1-.71-1.1,5,5,0,0,1-.39-0.92,3,3,0,0,1-.18-0.71,1.05,1.05,0,0,1,0-.46V34.39a0.85,0.85,0,0,1,.07-0.28c0.07-.07.11-0.14,0.18-0.22,3-3,3.17,1.07,2.81,1.42l-0.46.46a0,0,0,0,1,0,0v0.07a1.45,1.45,0,0,0,.18.46,2.54,2.54,0,0,0,.35.53,3.77,3.77,0,0,0,.64.78c0.28,0.28.57,0.5,0.78,0.68s0.39,0.25.54,0.36a0.82,0.82,0,0,0,.35.1l0.11,0h0.07l0,0c1.25-1.81,3.06-.1,3.17.75h0Z" transform="translate(-866.48 -32.36)"/></svg>