<svg xmlns="http://www.w3.org/2000/svg" xmlns:xlink="http://www.w3.org/1999/xlink" version="1.1" x="0px" y="0px" viewBox="0 0 32 40" enable-background="new 0 0 32 32" xml:space="preserve"><g><path d="M26.138,4.058c-0.067-0.034-0.139-0.057-0.219-0.057L10.158,3.926c-2.112,0-4.25,1.5-4.25,4.365L5.997,23h-2.45   c-0.276,0-0.5,0.224-0.5,0.5c0,1.201,1.061,4.5,4.475,4.5h11.932c0.181,0.032,0.366,0.049,0.557,0.049   c2.254,0,4.087-1.764,4.087-3.937L23.948,7.998C23.966,7.999,23.982,8,24,8h4.083c0.276,0,0.5-0.224,0.5-0.5   C28.583,5.503,27.673,4.256,26.138,4.058z M7.521,27c-2.321,0-3.171-1.983-3.402-3H6.5h0.003h9.671   c0.122,1.104,0.635,2.221,1.423,3H7.521z M20.203,27.043C20.142,27.016,20.072,27,20,27h-0.444c-1.406-0.305-2.409-1.983-2.409-3.5   c0-0.276-0.224-0.5-0.5-0.5H6.997L6.908,8.284c0-2.309,1.685-3.36,3.248-3.36L23.783,4.99c-0.524,0.663-0.836,1.621-0.836,2.768   l0.15,16.359C23.097,25.672,21.815,26.948,20.203,27.043z M24.007,7c0.174-1.053,0.722-1.982,1.701-1.982   c1.111,0,1.733,0.667,1.854,1.982H24.007z"/><path d="M8.5,12.312c0.081,0.107,0.201,0.186,0.334,0.204l0.681,0.099v4.334c0,0.189,0.106,0.361,0.274,0.446   c0.071,0.036,0.148,0.055,0.226,0.055c0.104,0,0.209-0.033,0.296-0.098l1.316-0.967l1.276,0.963   c0.15,0.115,0.354,0.134,0.523,0.049c0.17-0.085,0.277-0.258,0.277-0.448v-4.244l0.585-0.044c0.134-0.01,0.258-0.073,0.345-0.175   c0.086-0.103,0.128-0.235,0.116-0.369l-0.127-1.393l0.789-1.155c0.075-0.111,0.104-0.247,0.077-0.379   c-0.025-0.131-0.104-0.247-0.215-0.321l-1.169-0.77l-0.411-1.336c-0.039-0.128-0.128-0.235-0.247-0.297   c-0.119-0.061-0.257-0.072-0.386-0.032l-1.33,0.433L10.43,6.357c-0.124-0.048-0.263-0.046-0.386,0.009   C9.921,6.42,9.826,6.522,9.779,6.647L9.288,7.958L8.076,8.656c-0.116,0.067-0.2,0.178-0.234,0.308   C7.809,9.094,7.828,9.232,7.897,9.347l0.718,1.201l-0.209,1.386C8.386,12.066,8.42,12.205,8.5,12.312z M11.932,15.363   c-0.175-0.132-0.418-0.136-0.597-0.004l-0.82,0.603v-2.915l0.655,0.729C11.262,13.874,11.388,14,11.522,14c0.005,0,0.01,0,0.015,0   c0.129,0,0.253-0.114,0.346-0.202l0.821-0.838v2.986L11.932,15.363z M9.943,8.734c0.101-0.058,0.178-0.149,0.218-0.258l0.376-1.002   l0.996,0.392c0.106,0.042,0.226,0.045,0.338,0.01l1.018-0.332l0.314,1.022c0.034,0.111,0.105,0.207,0.202,0.271L14.3,9.426   l-0.604,0.884c-0.065,0.096-0.096,0.212-0.085,0.328l0.098,1.065l-1.067,0.08c-0.115,0.008-0.225,0.057-0.309,0.137l-0.773,0.74   l-0.727-0.785c-0.079-0.085-0.186-0.14-0.301-0.156l-1.061-0.143l0.16-1.059c0.018-0.115-0.006-0.232-0.065-0.332L9.017,9.269   L9.943,8.734z"/><path d="M21,19H9c-0.276,0-0.5,0.224-0.5,0.5S8.724,20,9,20h12c0.276,0,0.5-0.224,0.5-0.5S21.276,19,21,19z"/><path d="M21,16h-4c-0.276,0-0.5,0.224-0.5,0.5S16.724,17,17,17h4c0.276,0,0.5-0.224,0.5-0.5S21.276,16,21,16z"/><path d="M21,13h-4c-0.276,0-0.5,0.224-0.5,0.5S16.724,14,17,14h4c0.276,0,0.5-0.224,0.5-0.5S21.276,13,21,13z"/><path d="M21,10h-4c-0.276,0-0.5,0.224-0.5,0.5S16.724,11,17,11h4c0.276,0,0.5-0.224,0.5-0.5S21.276,10,21,10z"/><path d="M21,7h-4c-0.276,0-0.5,0.224-0.5,0.5S16.724,8,17,8h4c0.276,0,0.5-0.224,0.5-0.5S21.276,7,21,7z"/></g><text x="0" y="47" fill="#000000" font-size="5px" font-weight="bold" font-family="'Helvetica Neue', Helvetica, Arial-Unicode, Arial, Sans-serif">Created by Guilherme Simoes</text><text x="0" y="52" fill="#000000" font-size="5px" font-weight="bold" font-family="'Helvetica Neue', Helvetica, Arial-Unicode, Arial, Sans-serif">from the Noun Project</text></svg>