<?xml version="1.0" encoding="UTF-8"?>
<!DOCTYPE svg PUBLIC "-//W3C//DTD SVG 1.1//EN" "http://www.w3.org/Graphics/SVG/1.1/DTD/svg11.dtd">
<!-- Creator: CorelDRAW X8 -->
<svg xmlns="http://www.w3.org/2000/svg" xml:space="preserve" width="34px" height="34px" version="1.1" style="shape-rendering:geometricPrecision; text-rendering:geometricPrecision; image-rendering:optimizeQuality; fill-rule:evenodd; clip-rule:evenodd"
viewBox="0 0 3400000 3400000"
 xmlns:xlink="http://www.w3.org/1999/xlink">
 <defs>
  <style type="text/css">
   <![CDATA[
    .fil0 {fill:#4F76BB}
   ]]>
  </style>
 </defs>
 <g id="Слой_x0020_1">
  <metadata id="CorelCorpID_0Corel-Layer"/>
  <path id="face" class="fil0" d="M1876225 1309164c34370,0 68623,0 111616,0 8623,0 8623,0 17009,0l0 -189099c-17009,0 -42757,-8504 -60120,-8504 -34371,0 -77246,0 -111617,0 -60237,0 -111616,17008 -154610,51497 -51497,42875 -85868,94491 -94608,154492 -8504,25867 -8504,51616 -8504,77364 0,42993 0,85868 0,128861l0 17127 -180359 118 0 214847 180477 0 0 532572 223233 0 0 -532690 180477 118c8504,-68741 17126,-137483 25749,-214847 -17127,0 -25749,0 -42875,0 -51498,0 -171855,0 -171855,0 0,0 0,-103113 0,-146106 0,-68623 34489,-85986 85987,-85986l0 118 0 118z"/>
 </g>
</svg>
