<?xml version="1.0" encoding="UTF-8"?>
<!DOCTYPE svg PUBLIC "-//W3C//DTD SVG 1.1//EN" "http://www.w3.org/Graphics/SVG/1.1/DTD/svg11.dtd">
<!-- Creator: CorelDRAW X8 -->
<svg xmlns="http://www.w3.org/2000/svg" xml:space="preserve" width="34px" height="34px" version="1.1" style="shape-rendering:geometricPrecision; text-rendering:geometricPrecision; image-rendering:optimizeQuality; fill-rule:evenodd; clip-rule:evenodd"
viewBox="0 0 3400000 3400000"
 xmlns:xlink="http://www.w3.org/1999/xlink">
 <defs>
  <style type="text/css">
   <![CDATA[
    .fil0 {fill:#F1574A}
   ]]>
  </style>
 </defs>
 <g id="Слой_x0020_1">
  <metadata id="CorelCorpID_0Corel-Layer"/>
  <g id="_2708735476816">
   <path class="fil0" d="M1423261 1619919c0,8859 0,8859 0,0 0,62482 0,187328 0,187328 0,0 240951,0 259022,0 0,17835 -26930,98151 -98388,142798 -44647,26930 -89293,44647 -142917,44647 -35670,0 -71458,0 -107128,-8859 -107247,-35670 -187564,-134058 -196540,-249927 0,-26811 0,-53505 8858,-89293 35789,-142799 160752,-240951 312645,-222997 62600,8858 107247,35552 142917,71340 44647,-44647 89293,-89294 142917,-142917 -8859,-8858 -35789,-35670 -80435,-62482 -71340,-44528 -142799,-62481 -223234,-62481 -17717,0 -26811,0 -44646,0 -26812,0 -53506,8858 -80317,8858 -107247,26930 -187564,80435 -259140,160634 -62482,80317 -98152,169610 -107129,276620 0,44647 0,89294 8977,124846 26812,116105 89293,214375 187445,285715 71577,53505 160752,89293 259140,89293 53505,0 107247,0 160752,-17835 98152,-26811 178587,-71458 232092,-151657 89293,-116105 107246,-258785 80435,-401702 -160634,18071 -303551,18071 -455326,18071l0 0z"/>
   <polygon class="fil0" points="2450254,1628778 2289502,1628778 2289502,1468144 2289502,1459050 2280643,1459050 2164538,1459050 2155444,1459050 2155444,1468144 2155444,1628778 1994810,1628778 1985952,1628778 1985952,1628778 1985952,1753623 1985952,1762600 1994810,1762600 2155444,1762600 2155444,1923352 2155444,1923352 2164538,1923352 2280643,1923352 2289502,1923352 2289502,1923352 2289502,1762600 2450254,1762600 2450254,1762600 2450254,1753623 "/>
  </g>
 </g>
</svg>
