<svg id="3b43b68a-514b-48ce-ae87-4dc7c0d5a1d8" data-name="Layer 1" xmlns="http://www.w3.org/2000/svg" viewBox="0 0 8.93 8.64"><defs><style>.\36 6479e9f-04f2-4d97-9e78-75848bf1c043{fill:#d2293a;}</style></defs><title>home-icon</title><path class="66479e9f-04f2-4d97-9e78-75848bf1c043" d="M735.53,36.65a0.43,0.43,0,0,0,0-.61l-4-3.49a0.5,0.5,0,0,0-.65,0l-4,3.67a0.42,0.42,0,0,0,0,.61l0.1,0.1a0.44,0.44,0,0,0,.6,0l0.3-.27v3.92a0.44,0.44,0,0,0,.44.44h1.56a0.44,0.44,0,0,0,.44-0.44V37.89h2v2.74a0.41,0.41,0,0,0,.41.44h1.65a0.44,0.44,0,0,0,.44-0.44V36.77l0.18,0.16a0.39,0.39,0,0,0,.48-0.16Z" transform="translate(-726.72 -32.43)"/></svg>