<?xml version="1.0" encoding="UTF-8"?>
<!DOCTYPE svg PUBLIC "-//W3C//DTD SVG 1.1//EN" "http://www.w3.org/Graphics/SVG/1.1/DTD/svg11.dtd">
<!-- Creator: CorelDRAW X8 -->
<svg xmlns="http://www.w3.org/2000/svg" xml:space="preserve" width="34px" height="34px" version="1.1" style="shape-rendering:geometricPrecision; text-rendering:geometricPrecision; image-rendering:optimizeQuality; fill-rule:evenodd; clip-rule:evenodd"
viewBox="0 0 3400000 3400000"
 xmlns:xlink="http://www.w3.org/1999/xlink">
 <defs>
  <style type="text/css">
   <![CDATA[
    .fil0 {fill:#EA3D59}
   ]]>
  </style>
 </defs>
 <g id="Слой_x0020_1">
  <metadata id="CorelCorpID_0Corel-Layer"/>
  <path class="fil0" d="M2227729 1437553c-8977,-71458 -35788,-134058 -89294,-178587 -53623,-53505 -125081,-71340 -196540,-80435 -124963,-8858 -419655,-8858 -526902,9095 -116105,17717 -196421,89175 -232210,205162 -26929,89175 -17717,499736 -8858,588911 17717,124964 89175,196422 214375,232092 80317,17717 491114,17717 580407,0 125082,-17835 196422,-89175 232210,-214138 44529,-89176 35670,-472925 26812,-562100l0 0zm-98388 526429c-17835,89294 -71341,151776 -169611,160634 -89293,8977 -464420,17835 -544737,-8858 -71458,-17717 -116105,-71341 -134058,-151776 -8858,-71340 -17835,-437372 0,-535406 17835,-89293 71459,-151775 169610,-160633 89294,-8977 428750,-8977 518044,0 89293,17717 151893,71340 160752,169492 17953,98034 17953,437254 0,526547l0 0zm-419656 -535406c-151893,0 -267880,124964 -267880,267762 0,151658 124964,267644 267880,267644 151775,0 267880,-124845 267880,-267644 0,-142798 -116105,-267762 -267880,-267762zm0 446231c-98270,0 -169728,-80435 -169728,-178587 0,-98270 80435,-178468 178705,-178468 98270,0 178587,80198 178587,178468 -8977,107129 -89412,178587 -187564,178587l0 0zm348315 -455325c0,35788 -26929,62600 -62718,62600 -35670,0 -62481,-26812 -62481,-62600 0,-35552 26811,-62482 62481,-62482 35907,118 62718,26930 62718,62482z"/>
 </g>
</svg>
