<?xml version="1.0" encoding="UTF-8"?>
<!DOCTYPE svg PUBLIC "-//W3C//DTD SVG 1.1//EN" "http://www.w3.org/Graphics/SVG/1.1/DTD/svg11.dtd">
<!-- Creator: CorelDRAW X8 -->
<svg xmlns="http://www.w3.org/2000/svg" xml:space="preserve" width="34px" height="34px" version="1.1" style="shape-rendering:geometricPrecision; text-rendering:geometricPrecision; image-rendering:optimizeQuality; fill-rule:evenodd; clip-rule:evenodd"
viewBox="0 0 3400000 3400000"
 xmlns:xlink="http://www.w3.org/1999/xlink">
 <defs>
  <style type="text/css">
   <![CDATA[
    .fil0 {fill:#1387C8}
   ]]>
  </style>
 </defs>
 <g id="Слой_x0020_1">
  <metadata id="CorelCorpID_0Corel-Layer"/>
  <g id="_2708651834352">
   <path class="fil0" d="M1181957 1517043l223233 0 0 713993 -223233 0 0 -713993zm107246 -356937c71340,0 124964,53387 124964,124845 0,71458 -53506,124964 -124964,124964 -71458,0 -124963,-53506 -124963,-124964 0,-71222 53505,-124845 124963,-124845z"/>
   <path class="fil0" d="M1539248 1517043l214257 0 0 98270 0 -118c26930,-53505 98270,-115987 214493,-115987 223234,0 267881,151775 267881,339102l0 392726 -223352 0 0 -348197c0,-80199 0,-187327 -116105,-187327 -115987,0 -133940,89293 -133940,187327l0 357055 -223234 0 0 -722851 0 0z"/>
  </g>
 </g>
</svg>
