<svg height='100px' width='100px'  fill="#000000" xmlns="http://www.w3.org/2000/svg" xmlns:xlink="http://www.w3.org/1999/xlink" version="1.1" x="0px" y="0px" viewBox="0 0 97.917 100" enable-background="new 0 0 97.917 100" xml:space="preserve"><path fill="#000000" d="M62.5,41.667c0,0-11.974,0-18.75,0v-8.333c0-4.596,3.738-8.333,8.333-8.333c4.596,0,8.333,3.737,8.333,8.333  c0,1.151,0.933,2.083,2.084,2.083s2.083-0.932,2.083-2.083c0-6.893-5.607-12.5-12.5-12.5c-6.893,0-12.5,5.607-12.5,12.5v9.015  c-1.192,0.781-2.083,2.128-2.083,3.485V62.5c0,2.301,1.867,4.167,4.167,4.167H62.5c2.3,0,4.166-1.866,4.166-4.167V45.833  C66.667,43.532,64.8,41.667,62.5,41.667z"></path><rect x="27.083" y="72.917" fill="#000000" width="50" height="4.166"></rect><rect x="27.083" y="10.417" fill="#000000" width="50" height="4.167"></rect><path fill="#000000" d="M87.5,83.333V10.417C87.5,4.673,82.827,0,77.083,0H10.417C4.674,0,0,4.673,0,10.417v12.5h16.667v66.667  c0,5.743,4.674,10.417,10.417,10.417H87.5c5.742,0,10.416-4.674,10.416-10.417v-6.25H87.5z M4.167,18.75v-8.333  c0-3.446,2.803-6.25,6.25-6.25c3.446,0,6.25,2.804,6.25,6.25v8.333H4.167z M33.333,89.583c0,3.446-2.804,6.25-6.25,6.25  s-6.25-2.804-6.25-6.25V10.417c0-2.354-0.814-4.504-2.136-6.25h58.386c3.446,0,6.25,2.804,6.25,6.25v72.917h-50V89.583z   M93.75,89.583c0,3.446-2.804,6.25-6.25,6.25H35.413c1.311-1.741,2.087-3.906,2.087-6.25V87.5h56.25V89.583z"></path><path fill="#000000" d="M77.083,66.667V62.5h-6.25c0,1.524-0.442,2.936-1.16,4.167H77.083z"></path><path fill="#000000" d="M27.083,62.5v4.167h7.41c-0.717-1.231-1.16-2.643-1.16-4.167H27.083z"></path><rect x="70.833" y="52.083" fill="#000000" width="6.25" height="4.167"></rect><rect x="27.083" y="52.083" fill="#000000" width="6.25" height="4.167"></rect><path fill="#000000" d="M77.083,45.833v-4.167h-7.387c0.714,1.229,1.137,2.647,1.137,4.167H77.083z"></path><path fill="#000000" d="M27.083,41.667v4.167h6.25c0-1.451,0.443-2.893,1.233-4.167H27.083z"></path><path fill="#000000" d="M35.561,31.25h-8.477v4.167h8.333v-2.083C35.417,32.625,35.477,31.934,35.561,31.25z"></path><path fill="#000000" d="M68.347,35.417h8.736V31.25h-8.478c0.085,0.684,0.145,1.375,0.145,2.083  C68.75,34.07,68.583,34.76,68.347,35.417z"></path><path fill="#000000" d="M41.097,20.833H27.083V25h10.587C38.583,23.429,39.742,22.025,41.097,20.833z"></path><path fill="#000000" d="M66.496,25h10.588v-4.167H63.07C64.425,22.025,65.584,23.429,66.496,25z"></path></svg>