<svg xmlns="http://www.w3.org/2000/svg" viewBox="0 0 64 80" x="0px" y="0px"><g><path d="M61.242,41.823l-3.136-.784a13.568,13.568,0,0,0-1.039-2.5l1.664-2.773a1,1,0,0,0-.15-1.222L55.46,31.419a1,1,0,0,0-1.222-.15l-2.773,1.664c-.36-.193-.73-.371-1.107-.533h0a13.686,13.686,0,0,0-1.4-.506l-.784-3.136a1,1,0,0,0-.97-.758H42.793a1,1,0,0,0-.97.758l-.784,3.136a13.568,13.568,0,0,0-2.5,1.039l-2.773-1.664a1,1,0,0,0-1.222.15L31.419,34.54a1,1,0,0,0-.15,1.222l1.664,2.773a13.568,13.568,0,0,0-1.039,2.5l-3.136.784a1,1,0,0,0-.758.97v4.414a1,1,0,0,0,.758.97l3.136.784a13.568,13.568,0,0,0,1.039,2.5l-1.664,2.773a1,1,0,0,0,.15,1.222l3.121,3.121a1,1,0,0,0,1.222.15l2.773-1.664a13.568,13.568,0,0,0,2.5,1.039l.784,3.136a1,1,0,0,0,.97.758h4.414a1,1,0,0,0,.97-.758l.784-3.136a13.568,13.568,0,0,0,2.5-1.039l2.773,1.664a1,1,0,0,0,1.222-.15l3.121-3.121a1,1,0,0,0,.15-1.222l-1.664-2.773a13.568,13.568,0,0,0,1.039-2.5l3.136-.784a1,1,0,0,0,.758-.97V42.793A1,1,0,0,0,61.242,41.823ZM60,46.426l-2.943.736a1,1,0,0,0-.728.724,11.586,11.586,0,0,1-1.278,3.082,1,1,0,0,0,0,1.026l1.562,2.6L54.6,56.615l-2.6-1.562a1,1,0,0,0-1.026,0,11.586,11.586,0,0,1-3.082,1.278,1,1,0,0,0-.724.728L46.426,60H43.574l-.736-2.943a1,1,0,0,0-.724-.728,11.586,11.586,0,0,1-3.082-1.278,1,1,0,0,0-1.026,0l-2.6,1.562L33.385,54.6l1.562-2.6a1,1,0,0,0,0-1.026,11.586,11.586,0,0,1-1.278-3.082,1,1,0,0,0-.728-.724L30,46.426V43.574l2.943-.736a1,1,0,0,0,.728-.724,11.586,11.586,0,0,1,1.278-3.082,1,1,0,0,0,0-1.026l-1.562-2.6L35.4,33.385l2.6,1.562a1,1,0,0,0,1.026,0,11.586,11.586,0,0,1,3.082-1.278,1,1,0,0,0,.724-.728L43.574,30h2.852l.736,2.943a1,1,0,0,0,.724.728,11.533,11.533,0,0,1,3.081,1.277,1,1,0,0,0,1.027,0l2.6-1.562L56.615,35.4l-1.562,2.6a1,1,0,0,0,0,1.026,11.586,11.586,0,0,1,1.278,3.082,1,1,0,0,0,.728.724L60,43.574Z"/><path d="M45,37a8,8,0,1,0,8,8A8.009,8.009,0,0,0,45,37Zm0,14a6,6,0,1,1,6-6A6.006,6.006,0,0,1,45,51Z"/><rect x="50" y="14" width="2" height="16"/><path d="M8,53v4a1,1,0,0,0,1,1H30V56H10V53H22a1,1,0,0,0,.447-.1l4-2a1,1,0,0,0,0-1.79l-4-2A1,1,0,0,0,22,47H10V13H48a4,4,0,0,0,4-4V7a1,1,0,0,0-1-1H48V8h2V9a2,2,0,0,1-4,0V6a2,2,0,0,1,2-2h4a2,2,0,0,1,2,2V29h2V6a4,4,0,0,0-4-4H8A4,4,0,0,0,4,6V9a4,4,0,0,0,4,4V47H7a3,3,0,0,0,0,6ZM6,9V6A2,2,0,0,1,8,4H44.556A3.959,3.959,0,0,0,44,6V9a3.959,3.959,0,0,0,.556,2H8A2,2,0,0,1,6,9ZM23.764,50l-2,1H21V49h.764ZM6,50a1,1,0,0,1,1-1H19v2H7A1,1,0,0,1,6,50Z"/><rect x="4" y="17" width="2" height="20"/><path d="M43,18V16H30a1,1,0,0,0-.707.293L27.466,18.12a10.964,10.964,0,0,0-14.244,1.1,1,1,0,0,0,0,1.414l7.071,7.071A1,1,0,0,0,21,28H31a1,1,0,0,0,1-1,10.954,10.954,0,0,0-3.028-7.558L30.414,18ZM29.944,26h-8.53l-6.032-6.032a8.97,8.97,0,0,1,10.651-.415l-2.74,2.74,1.414,1.414,2.856-2.856A8.967,8.967,0,0,1,29.944,26Z"/><rect x="45" y="16" width="2" height="2"/><rect x="15" y="31" width="2" height="2"/><rect x="19" y="31" width="10" height="2"/><rect x="13" y="35" width="16" height="2"/><rect x="35" y="20" width="2" height="2"/><rect x="39" y="20" width="8" height="2"/><rect x="35" y="24" width="12" height="2"/><rect x="13" y="39" width="13" height="2"/></g><text x="0" y="79" fill="#000000" font-size="5px" font-weight="bold" font-family="'Helvetica Neue', Helvetica, Arial-Unicode, Arial, Sans-serif">Created by Nhor</text><text x="0" y="84" fill="#000000" font-size="5px" font-weight="bold" font-family="'Helvetica Neue', Helvetica, Arial-Unicode, Arial, Sans-serif">from the Noun Project</text></svg>