<svg xmlns="http://www.w3.org/2000/svg" viewBox="0 0 100 125" x="0px" y="0px"><title>_</title><g data-name="Layer 2"><path d="M59,69.24H51.6a1.25,1.25,0,0,0-1.21,1c-.21.86-2,2.44-4.27,2.44s-4.06-1.58-4.28-2.44a1.25,1.25,0,0,0-1.21-1H16.05V29.38h4v33a1.13,1.13,0,0,0,.06.36l0,.09a1,1,0,0,0,.11.23l.08.09a1.3,1.3,0,0,0,.15.18l.13.08.17.11h0A18.17,18.17,0,0,0,28.18,65a10.75,10.75,0,0,0,5.44-1.51,9.87,9.87,0,0,1,4.56-1.57h.72a9,9,0,0,1,5.84,2.77,1.25,1.25,0,0,0,.94.42,1.18,1.18,0,0,0,.25,0,1.42,1.42,0,0,0,.2,0h0l.12,0,.15,0a1.27,1.27,0,0,0,.94-.42,8.88,8.88,0,0,1,5.45-2.76,9.13,9.13,0,0,1,5.3,1.3A1.29,1.29,0,0,0,59.3,61a11.52,11.52,0,0,0-5.94-1.54,11.39,11.39,0,0,0-5.71,1.64V26.36a11,11,0,0,1,9.4-.77,1.25,1.25,0,0,0,.89-2.34,13.4,13.4,0,0,0-11.88,1.16c-1.55-1.09-7-4.15-14,.21-4.16,2.59-10.25-.05-10.31-.08a1.24,1.24,0,0,0-1.19.1,1.25,1.25,0,0,0-.57,1v1.2H14.8a1.25,1.25,0,0,0-1.25,1.25V70.49a1.25,1.25,0,0,0,1.25,1.25h25a7.56,7.56,0,0,0,12.61,0H59a1.25,1.25,0,0,0,0-2.5ZM33.4,26.74c5.58-3.47,9.73-1.31,11-.43V61a11.54,11.54,0,0,0-5.71-1.61,11.71,11.71,0,0,0-6.64,2,8.42,8.42,0,0,1-4.57,1.13,17.38,17.38,0,0,1-5-.94V27.46C25,28.21,29.64,29.09,33.4,26.74Z"/><path d="M53.56,46.43H68.23a4.27,4.27,0,1,0,0-2.5H53.56a1.25,1.25,0,0,0,0,2.5Zm18.74-3a1.77,1.77,0,1,1-1.77,1.77A1.76,1.76,0,0,1,72.3,43.46Z"/><path d="M77.54,32.84v2.83h-24a1.25,1.25,0,0,0,0,2.5H78.79A1.25,1.25,0,0,0,80,36.92V32.83a4.26,4.26,0,1,0-2.5,0ZM78.77,27A1.76,1.76,0,1,1,77,28.78,1.76,1.76,0,0,1,78.77,27Z"/><path d="M78.13,52.53H53.56a1.25,1.25,0,0,0,0,2.5H78.13a4.27,4.27,0,1,0,0-2.5ZM84,53.78A1.77,1.77,0,1,1,82.19,52,1.76,1.76,0,0,1,84,53.78Z"/><path d="M83.17,68.92V62a1.25,1.25,0,0,0-1.25-1.25H64.77a1.25,1.25,0,1,0,0,2.5h15.9v5.64a4.27,4.27,0,1,0,2.5,0Zm-1.23,5.82A1.76,1.76,0,1,1,83.71,73,1.76,1.76,0,0,1,81.94,74.74Z"/><path d="M71.7,76V70.78a1.25,1.25,0,0,0-1.25-1.25H64.77a1.25,1.25,0,1,0,0,2.5H69.2v4.14A4.25,4.25,0,1,0,71.7,76Zm-1,5.9a1.77,1.77,0,1,1,1.76-1.77A1.76,1.76,0,0,1,70.7,81.91Z"/><path d="M62.5,30.47h3.55a1.25,1.25,0,0,0,1.25-1.25V24a4.27,4.27,0,1,0-2.5-.16V28H62.5a1.25,1.25,0,0,0,0,2.5Zm3.8-12.38a1.77,1.77,0,1,1-1.76,1.77A1.77,1.77,0,0,1,66.3,18.09Z"/></g><text x="0" y="115" fill="#000000" font-size="5px" font-weight="bold" font-family="'Helvetica Neue', Helvetica, Arial-Unicode, Arial, Sans-serif">Created by Eli Magaziner</text><text x="0" y="120" fill="#000000" font-size="5px" font-weight="bold" font-family="'Helvetica Neue', Helvetica, Arial-Unicode, Arial, Sans-serif">from the Noun Project</text></svg>