<?xml version="1.0" encoding="utf-8"?>
<!-- Generator: Adobe Illustrator 24.3.0, SVG Export Plug-In . SVG Version: 6.00 Build 0)  -->
<svg version="1.1" id="_x38_609741c-2833-417a-8ffb-3b898a778b13"
	 xmlns="http://www.w3.org/2000/svg" xmlns:xlink="http://www.w3.org/1999/xlink" x="0px" y="0px" viewBox="0 0 18.1 18.6"
	 style="enable-background:new 0 0 18.1 18.6;" xml:space="preserve">
<style type="text/css">
	.st0{fill:#1B5AC9;}
</style>
<path class="st0" d="M12.2,6.1C12.2,2.7,9.5,0,6.1,0C2.7,0,0,2.7,0,6.1c0,3.4,2.7,6.1,6.1,6.1c1.3,0,2.6-0.4,3.6-1.2l1.6,1.6
	l0.9-0.9l-1.5-1.6C11.7,9,12.2,7.6,12.2,6.1z M6.1,9.8c-2.1,0-3.7-1.7-3.7-3.7s1.7-3.7,3.7-3.7c2.1,0,3.7,1.7,3.7,3.7c0,0,0,0,0,0
	C9.8,8.2,8.2,9.8,6.1,9.8z"/>
<polygon points="11.3,13.7 13.2,11.8 18.1,16.6 16.2,18.6 "/>
</svg>
