<?xml version="1.0" encoding="UTF-8"?>
<!DOCTYPE svg PUBLIC "-//W3C//DTD SVG 1.1//EN" "http://www.w3.org/Graphics/SVG/1.1/DTD/svg11.dtd">
<!-- Creator: CorelDRAW X8 -->
<svg xmlns="http://www.w3.org/2000/svg" xml:space="preserve" width="34px" height="34px" version="1.1" style="shape-rendering:geometricPrecision; text-rendering:geometricPrecision; image-rendering:optimizeQuality; fill-rule:evenodd; clip-rule:evenodd"
viewBox="0 0 3400000 3400000"
 xmlns:xlink="http://www.w3.org/1999/xlink">
 <defs>
  <style type="text/css">
   <![CDATA[
    .fil0 {fill:#34C4F3}
   ]]>
  </style>
 </defs>
 <g id="Слой_x0020_1">
  <metadata id="CorelCorpID_0Corel-Layer"/>
  <path class="fil0" d="M1481373 1968943c-116105,0 -196540,-89175 -214375,-160515 35670,8858 62482,8858 98270,0 0,0 0,0 0,0 -62600,-17953 -116223,-53505 -151893,-107247 -26812,-35670 -35671,-80199 -35671,-124845 35671,17717 62482,26693 107129,26693 -44647,-35552 -80435,-80198 -98270,-142798 -8859,-62482 -8859,-115987 26930,-169492 124845,151775 285715,232092 473160,240950 0,-8858 0,-17835 0,-26812 -8858,-53505 0,-107128 35788,-151775 35671,-53505 89294,-89175 160752,-107128 80317,-8977 142917,8976 205281,62481 0,0 8858,8977 8858,0 44647,-8858 89293,-26811 134176,-53387 0,0 0,0 0,0 0,0 0,0 0,0 -17835,53387 -53623,98152 -98388,124964 44647,-8977 89294,-17953 125082,-35788 0,0 0,0 0,0 -8859,8858 -17835,26811 -26930,35788 -26811,26693 -53505,53387 -80317,80199 0,0 0,0 0,8976 0,35670 0,71340 0,107129 -8976,71340 -26811,142798 -62600,205162 -35670,71340 -71340,124963 -124963,178587 -89293,89175 -196422,151775 -321385,178468 -44647,8859 -89294,17717 -125082,17717 -134058,0 -258904,-26693 -366150,-98151 0,0 0,0 -8859,0 80317,8976 160752,0 232210,-35671 35789,-8858 80435,-26811 107365,-53505l-118 0z"/>
 </g>
</svg>
