<?xml version="1.0" encoding="UTF-8"?>
<!DOCTYPE svg PUBLIC "-//W3C//DTD SVG 1.1//EN" "http://www.w3.org/Graphics/SVG/1.1/DTD/svg11.dtd">
<!-- Creator: CorelDRAW X8 -->
<svg xmlns="http://www.w3.org/2000/svg" xml:space="preserve" width="34px" height="34px" version="1.1" style="shape-rendering:geometricPrecision; text-rendering:geometricPrecision; image-rendering:optimizeQuality; fill-rule:evenodd; clip-rule:evenodd"
viewBox="0 0 3400000 3400000"
 xmlns:xlink="http://www.w3.org/1999/xlink">
 <defs>
  <style type="text/css">
   <![CDATA[
    .fil0 {fill:#EF3F37}
   ]]>
  </style>
 </defs>
 <g id="Слой_x0020_1">
  <metadata id="CorelCorpID_0Corel-Layer"/>
  <path class="fil0" d="M1587438 1052505l-75238 0 -47009 187681 -46890 -187681 -75238 0c18780,47009 28229,93781 47009,131341 18661,65789 37441,122129 46890,150240l0 197131 75238 0 0 -197131 75238 -281581 0 0zm629188 666393c-9449,-56340 -56222,-103231 -112798,-103231 -131459,-18898 -272368,-18898 -403828,-18898 -131460,0 -272250,0 -403828,18898 -56222,9213 -103349,46773 -112680,103231 -18662,84451 -18662,168902 -18662,253234 0,84451 0,169020 18662,253471 9331,56340 56222,103349 112680,103349 131578,18543 272368,18543 403828,18543 131460,0 272369,0 403828,-18543 56340,-9449 103349,-47009 112798,-103349 18662,-84451 18662,-169020 18662,-253471 0,-84214 0,-168665 -18662,-253234zm-751435 75002l-75119 0 0 413041 -75120 118 0 -412923 -75238 -236 0 -65789 225477 118 0 65671zm197367 413041l-65907 0 0 -37442c-28111,28229 -46891,46891 -75120,46891 -41575,0 -47009,-51615 -47009,-84451l0 -281581 65907 0 0 262801c0,18780 0,18780 0,28229 0,9331 9331,18780 18662,18780 9331,0 28347,-9449 37560,-28229l0 -272250 65789 0 0 347488 118 -118 0 -118zm234573 -37442c-9213,28229 -28111,37442 -56222,37442 -18662,0 -47009,-9213 -65671,-37442l0 37442 -65907 0 0 -478712 65907 0 0 159689c18544,-28229 46891,-37560 65671,-37560 60710,0 65671,64608 65671,112561 0,31419 6378,175044 -9449,206462l0 118zm253706 -131578l-131460 0 0 65789c0,37678 9331,46891 37560,46891 18662,0 28229,-9213 28229,-28229 0,0 0,-18662 0,-46773l65671 0 0 9331c0,18662 0,37442 0,37442 0,40513 -31772,75120 -93900,75120 -37678,0 -56221,-9331 -75119,-37560 -27403,-54332 -18780,-144925 -18780,-206343 0,-37560 9449,-65789 18780,-84451 18543,-28229 46890,-37560 75119,-37560 28229,0 56340,9331 75002,37560 9449,18662 18898,46773 18898,84451l0 84332 0 118 0 -118zm-93781 -140672c-18899,0 -28229,18662 -28229,46891l0 37559 65788 0c0,-25866 8268,-85277 -37559,-84450l0 0zm-244376 0c-9331,0 -18662,9331 -28111,18662l0 215910c9331,9331 18662,18662 28111,18662 18780,0 28347,-18662 28347,-47009l0 -150004c-118,-37559 -9567,-56221 -28347,-56221zm-37442 -478712l0 -121893c0,-37678 -9449,-65789 -18780,-84451 -18662,-28229 -46891,-37559 -75002,-37559 -28347,0 -56458,9330 -75238,37559 -9449,18662 -18662,46773 -18662,84451l0 121893c0,37560 9213,65789 18662,84451 18662,28229 46891,37678 75238,37678 28111,0 56222,-9568 75002,-37678 9331,-18662 18780,-46773 18780,-84451zm-65789 9449c0,37442 -9449,46891 -28229,46891 -18662,0 -28229,-18780 -28229,-46891l0 -150240c0,-37442 9449,-46891 28229,-46891 18662,0 28229,18662 28229,46891l0 150240zm309928 103231l0 -356583 -65788 0 0 272132c-18780,18662 -28229,28347 -37560,28347 -19961,0 -18662,-34962 -18662,-47009l0 -253470 -65907 0 0 281463c0,40749 4606,84569 56340,84569 28347,0 47009,-18898 75238,-47009l0 37560 56339 0 0 0 0 0z"/>
 </g>
</svg>
